- 
http://www.Speed.Cd 
       
http://www.Speed.Cd       the fast  and The Hottest Private Tracker on the net

(((--Registration will be open on june every weekend--)))

Please Seed back to make the speed Faster!!!

------------------nfo--------------------------
-[img]http://img32.imageshack.us/img32/2373/3542902157d2orpogcbeatj.jpg[/img]

[color=blue][size=4][b]You.Got.Served.Beat.the.World.2011.BDRip.XVID.AC3.HQ.Hive-CM8[/b][/size][/color]


[b]Thx Hive


CM8 Doing It Right The First Time :D


Source Bluray

Video: 720x304 @bitrate 2200 2pass
NO PIXELATION btw
Audio: English DTS to AC3 5.1 @384
Sample: yes included
Subs: yes english in srt /subs[/b]


[url]http://www.imdb.com/title/tt1568139/[/url]


General
Complete name                    : You.Got.Served.Beat.the.World.2011.BDRip.XVID.AC3.HQ.Hive-CM8.avi
Format                           : AVI
Format/Info                      : Audio Video Interleave
File size                        : 1.65 GiB
Duration                         : 1h 31mn
Overall bit rate                 : 2 592 Kbps
Writing application              : Nandub v1.0rc2
Writing library                  : Nandub build 1853/release

Video
ID                               : 0
Format                           : MPEG-4 Visual
Format profile                   : Advanced Simple@L5
Format settings, BVOP            : 1
Format settings, QPel            : Yes
Format settings, GMC             : No warppoints
Format settings, Matrix          : Default (H.263)
Muxing mode                      : Packed bitstream
Codec ID                         : XVID
Codec ID/Hint                    : XviD
Duration                         : 1h 31mn
Bit rate                         : 2 199 Kbps
Width                            : 720 pixels
Height                           : 304 pixels
Display aspect ratio             : 2.35:1
Frame rate                       : 23.976 fps
Color space                      : YUV
Chroma subsampling               : 4:2:0
Bit depth                        : 8 bits
Scan type                        : Progressive
Compression mode                 : Lossy
Bits/(Pixel*Frame)               : 0.419
Stream size                      : 1.40 GiB (85%)
Writing library                  : XviD 1.2.1 (UTC 2008-12-04)

Audio
ID                               : 1
Format                           : AC-3
Format/Info                      : Audio Coding 3
Mode extension                   : CM (complete main)
Codec ID                         : 2000
Duration                         : 1h 31mn
Bit rate mode                    : Constant
Bit rate                         : 384 Kbps
Channel(s)                       : 6 channels
Channel positions                : Front: L C R, Side: L R, LFE
Sampling rate                    : 48.0 KHz
Bit depth                        : 16 bits
Compression mode                 : Lossy
Stream size                      : 251 MiB (15%)
Alignment                        : Split accross interleaves
Interleave, duration             : 42 ms (1.00 video frame)
Interleave, preload duration     : 500 ms


Tyrone Brown	 ... 	Yuson
Mishael Morgan	... 	Maya
Nikki Grant	... 	Cherry
Ray Johnson	... 	Easy (as Sho-Tyme)
Chase Armitage	... 	Justin
Kristy Flores	... 	Olivia


Three dance crews prepare to do battle at the international Beat the World competition in Detroit. 
In the final showdown to become world champions lifelong hopes, dreams and even lives, are at stake. 



[img]http://img857.imageshack.us/img857/609/81313586.png[/img]
[img]http://img810.imageshack.us/img810/2842/yoyon.png[/img]
[img]http://img718.imageshack.us/img718/9574/yoyoyyoyoo.png[/img]
[img]http://img577.imageshack.us/img577/4537/yoyoyyoyoyoo.png[/img]
[img]http://img848.imageshack.us/img848/9840/yoyoyyoyoyoyoo.png[/img]
[img]http://img15.imageshack.us/img15/8277/yoyyoo.png[/img]
[img]http://img854.imageshack.us/img854/2687/yoyyoyoo.png[/img]




Greetz

ViSiON,SANTi,MAGNET,THC,T0XiC,iNK,LKRG,IMAGiNE,WBZ,FLAWL3SS,NOVA
Vik,OneTwo,Rapeseed,D2U,SAFC,goldadvance,MEMORY100,KaN1vE,Unevano,Pinnz,Wayne,Mr Hive
and all P2P groups 
Great Work Guys :D

FYS

CM8@hushmail.com